<?xml version="1.0" standalone="no"?>
<!DOCTYPE svg PUBLIC "-//W3C//DTD SVG 20010904//EN"
 "http://www.w3.org/TR/2001/REC-SVG-20010904/DTD/svg10.dtd">
<svg version="1.0" xmlns="http://www.w3.org/2000/svg"
 width="166.000000pt" height="166.000000pt" viewBox="0 0 166.000000 166.000000"
 preserveAspectRatio="xMidYMid meet">
<metadata>
Created by potrace 1.14, written by Peter Selinger 2001-2017
</metadata>
<g transform="translate(0.000000,166.000000) scale(0.100000,-0.100000)"
fill="#000000" stroke="none">
<path d="M544 1608 c-4 -13 -7 -26 -6 -29 1 -4 -4 -6 -11 -6 -7 0 -25 -1 -42
-1 l-30 -2 30 -24 c28 -22 29 -25 18 -60 l-11 -37 32 19 c33 20 34 20 64 0
l30 -19 -10 35 c-10 33 -9 37 18 58 l29 23 -35 5 c-23 3 -38 13 -46 28 -17 34
-21 36 -30 10z m54 -51 c15 6 15 4 -1 -15 -11 -11 -16 -26 -12 -32 5 -9 1 -10
-13 -6 -11 4 -23 2 -27 -4 -3 -5 -11 -10 -17 -10 -7 0 -7 5 1 14 9 11 8 17 -4
29 -19 19 -19 28 -2 21 8 -3 20 2 27 11 12 14 14 15 22 1 5 -9 15 -13 26 -9z"/>
<path d="M845 1600 c-6 -26 -11 -30 -39 -30 -22 0 -33 -5 -33 -15 0 -8 3 -12
7 -10 14 9 39 -30 30 -45 -5 -8 -10 -23 -10 -33 0 -17 2 -17 31 3 27 20 32 20
47 8 40 -35 45 -31 28 19 -6 18 -1 28 21 48 l28 24 -37 1 c-31 0 -37 4 -47 30
-5 17 -12 30 -15 30 -2 0 -7 -13 -11 -30z m56 -50 c8 0 8 -5 -1 -15 -7 -8 -10
-24 -7 -36 4 -16 3 -18 -9 -8 -7 6 -26 9 -41 6 -16 -4 -23 -4 -17 -1 13 6 7
44 -7 44 -5 0 -9 5 -9 11 0 6 7 8 16 5 10 -4 18 0 21 13 5 19 5 19 24 0 10
-10 24 -19 30 -19z"/>
<path d="M1147 1601 c-6 -28 -10 -31 -44 -31 l-37 0 29 -30 c17 -18 26 -34 20
-38 -6 -4 -11 -17 -13 -29 -2 -17 1 -21 12 -17 9 3 16 10 16 14 0 19 34 18 63
-2 l30 -22 -8 25 c-4 13 -8 34 -9 47 0 12 -5 22 -10 22 -4 0 -6 -13 -4 -30 4
-24 2 -27 -9 -19 -7 6 -21 9 -31 7 -12 -4 -18 1 -19 14 -1 11 -10 26 -19 33
-16 11 -15 12 9 10 18 -2 27 1 27 11 0 8 5 14 10 14 6 0 10 -4 10 -9 0 -5 13
-13 28 -19 21 -7 33 -6 47 4 17 13 15 14 -23 14 -28 0 -42 4 -42 13 0 7 -6 21
-13 32 -13 17 -14 16 -20 -14z"/>
<path d="M540 1083 c0 -295 0 -296 20 -278 11 10 20 28 21 39 0 20 1 20 9 -1
6 -15 15 -21 25 -17 8 3 15 1 15 -6 0 -6 3 -9 8 -7 4 3 21 -1 37 -9 17 -8 21
-12 10 -9 -17 5 -18 4 -7 -7 11 -11 16 -10 28 7 13 18 13 21 -3 34 -17 13 -17
13 0 7 13 -4 17 -2 14 6 -2 7 -10 12 -16 10 -6 -1 -11 6 -12 15 0 10 -2 28 -3
41 -2 12 3 22 9 22 7 0 10 -11 7 -30 -2 -16 0 -30 4 -30 5 0 9 30 8 68 -2 85
-2 85 -15 76 -6 -3 -7 -9 -3 -13 13 -9 13 -38 0 -38 -7 0 -11 12 -10 26 1 14
2 36 3 49 0 13 5 20 11 17 6 -4 8 -11 5 -16 -4 -5 -2 -9 3 -9 5 0 10 11 10 25
0 13 -4 23 -8 20 -3 -2 -7 2 -7 9 0 8 7 12 15 8 10 -3 13 -1 8 6 -8 13 -2 14
153 16 72 1 95 -2 99 -13 3 -8 1 -11 -4 -8 -5 3 -8 -30 -6 -73 3 -62 7 -80 20
-85 9 -3 13 -3 9 1 -4 4 -1 14 6 23 11 14 10 14 -5 2 -16 -12 -18 -11 -16 12
3 35 36 43 50 12 6 -13 16 -21 23 -18 20 7 57 -16 48 -30 -4 -7 0 -7 10 2 14
11 17 11 17 0 0 -12 2 -12 9 -1 10 16 7 109 -4 120 -4 4 -5 -5 -3 -20 3 -16 2
-28 -2 -28 -12 0 -19 39 -9 46 6 4 6 11 -1 19 -8 10 -7 16 7 23 15 9 18 25 18
111 1 66 -3 101 -10 101 -7 0 -9 -22 -5 -65 3 -36 2 -65 -1 -65 -4 0 -3 -16 1
-35 5 -24 4 -35 -4 -35 -7 0 -11 31 -10 102 2 121 4 138 11 121 8 -22 19 -14
18 12 -2 40 -11 38 -30 -5 -14 -31 -18 -70 -20 -177 -1 -76 -3 -144 -4 -150
-2 -19 -21 -16 -21 3 0 8 -3 13 -7 11 -5 -3 -8 16 -9 41 0 25 -6 48 -12 50 -7
2 -12 11 -12 20 0 15 -2 15 -10 2 -5 -8 -10 -10 -10 -4 0 6 10 19 23 28 12 9
16 14 10 11 -8 -4 -11 -1 -7 9 3 9 10 14 14 11 4 -3 11 2 14 11 9 24 7 31 -5
14 -7 -11 -9 0 -5 38 2 28 0 52 -4 52 -10 0 -25 40 -22 58 2 7 -9 12 -28 12
l-30 0 0 -111 c0 -102 2 -111 18 -105 16 6 16 5 0 -7 -10 -8 -16 -16 -13 -19
2 -2 -37 -6 -88 -7 -50 -2 -110 -4 -132 -5 -22 -2 -46 2 -54 8 -11 8 -13 8 -7
-1 4 -7 2 -14 -3 -14 -6 -1 -16 -2 -21 -3 -6 0 -15 -7 -19 -15 -6 -9 -11 -10
-15 -2 -4 6 -1 11 6 11 9 0 9 3 -2 10 -13 9 -13 10 0 10 10 0 11 3 3 8 -19 12
-27 60 -12 79 10 12 10 15 2 9 -7 -4 -13 -2 -13 3 0 6 6 11 13 11 8 0 8 3 2 8
-6 4 -10 16 -10 27 0 11 -7 31 -17 46 -21 32 -12 46 32 52 34 4 34 4 -7 5 -25
1 -43 -3 -46 -10 -4 -10 -6 -10 -6 0 -1 6 -10 12 -21 12 -20 0 -20 -7 -20
-297z m31 270 c13 -16 12 -17 -3 -4 -10 7 -18 15 -18 17 0 8 8 3 21 -13z m426
-95 c-3 -8 -6 -5 -6 6 -1 11 2 17 5 13 3 -3 4 -12 1 -19z m3 -168 c-9 -6 -8
-10 5 -17 15 -9 15 -11 2 -16 -9 -3 -18 1 -21 9 -7 19 4 45 16 38 6 -4 6 -9
-2 -14z m-345 -30 c-2 -11 -1 -20 3 -20 4 0 7 -16 7 -35 0 -19 -3 -35 -8 -35
-5 0 -4 -7 3 -15 10 -12 10 -15 -1 -15 -10 0 -11 -2 -2 -8 18 -11 9 -66 -11
-70 -18 -4 -17 -5 -20 58 -2 25 2 51 8 59 8 11 8 13 -1 7 -7 -4 -13 -2 -13 3
0 6 6 11 13 12 10 0 10 2 0 6 -20 7 -15 26 5 19 15 -5 15 -5 1 6 -21 17 -24
29 -7 39 21 14 27 11 23 -11z m342 -42 c-3 -8 -6 -5 -6 6 -1 11 2 17 5 13 3
-3 4 -12 1 -19z m-290 -74 c-3 -3 -12 -4 -19 -1 -8 3 -5 6 6 6 11 1 17 -2 13
-5z m-148 -128 c-9 -8 -10 -5 -5 14 3 14 6 32 7 40 1 8 4 2 6 -14 3 -16 -1
-34 -8 -40z"/>
<path d="M696 1358 c-9 -12 -16 -27 -16 -33 0 -5 5 -3 10 5 8 13 10 12 10 -2
0 -10 -7 -18 -15 -18 -8 0 -16 -4 -16 -10 -2 -13 -6 -29 -9 -32 -7 -10 -7 -37
1 -32 5 3 9 -2 9 -10 0 -9 4 -16 9 -16 6 0 8 9 6 20 -2 12 2 20 10 20 11 0 12
-6 5 -24 -6 -17 -5 -26 4 -29 9 -4 12 8 12 44 -1 27 -5 49 -10 49 -4 0 -6 -7
-2 -15 3 -8 2 -15 -3 -15 -5 0 -11 9 -14 20 -3 11 -1 18 4 14 5 -3 9 0 9 6 0
6 4 9 8 6 5 -3 9 13 9 34 0 22 -1 40 -3 40 -2 0 -10 -10 -18 -22z"/>
<path d="M678 1193 c6 -2 12 -11 12 -19 0 -16 16 -19 25 -5 5 10 -25 32 -42
30 -4 0 -2 -3 5 -6z"/>
<path d="M783 1153 c9 -2 23 -2 30 0 6 3 -1 5 -18 5 -16 0 -22 -2 -12 -5z"/>
<path d="M838 1153 c7 -3 16 -2 19 1 4 3 -2 6 -13 5 -11 0 -14 -3 -6 -6z"/>
<path d="M898 1153 c6 -2 18 -2 25 0 6 3 1 5 -13 5 -14 0 -19 -2 -12 -5z"/>
<path d="M948 1153 c7 -3 16 -2 19 1 4 3 -2 6 -13 5 -11 0 -14 -3 -6 -6z"/>
<path d="M1125 1080 c3 -5 10 -10 16 -10 5 0 9 5 9 10 0 6 -7 10 -16 10 -8 0
-12 -4 -9 -10z"/>
<path d="M1075 1061 c-3 -5 -2 -12 3 -15 5 -3 9 1 9 9 0 17 -3 19 -12 6z"/>
<path d="M1007 994 c-3 -5 1 -15 9 -22 16 -14 18 -5 5 17 -5 7 -11 9 -14 5z"/>
<path d="M1070 940 c0 -5 5 -10 11 -10 5 0 7 5 4 10 -3 6 -8 10 -11 10 -2 0
-4 -4 -4 -10z"/>
<path d="M1038 933 c7 -3 16 -2 19 1 4 3 -2 6 -13 5 -11 0 -14 -3 -6 -6z"/>
<path d="M970 575 c0 -127 3 -175 12 -175 21 0 -1 -13 -24 -14 -15 -1 -23 -7
-23 -19 0 -44 -90 -60 -172 -29 -62 22 -97 18 -111 -14 -8 -17 -9 -24 -1 -24
7 0 9 -11 7 -25 -3 -14 -2 -25 2 -25 4 0 6 -12 5 -27 -1 -29 -35 -43 -36 -15
0 10 -2 30 -4 47 -2 16 2 42 9 57 10 20 11 29 2 39 -8 9 -8 10 3 4 8 -5 6 3
-5 21 -14 21 -15 26 -4 19 13 -8 13 -6 1 8 -8 11 -12 32 -9 59 3 29 -1 55 -14
80 -10 21 -18 39 -18 42 0 3 17 7 38 9 25 2 16 4 -25 5 l-63 2 0 -228 c0 -126
3 -231 6 -235 4 -3 16 0 28 8 23 15 76 9 76 -8 0 -6 3 -8 6 -4 3 3 17 2 30 -3
23 -9 24 -8 24 35 0 25 -4 45 -9 45 -5 0 -8 -11 -7 -25 2 -13 0 -22 -4 -20 -9
6 -7 101 2 110 4 4 4 -7 2 -24 -3 -17 -1 -31 4 -31 4 0 8 26 8 57 0 58 0 58
29 56 16 -1 31 -6 34 -10 3 -4 11 -9 17 -10 6 -1 24 -4 39 -7 15 -3 30 -7 32
-10 3 -3 19 2 36 11 46 24 83 32 98 22 10 -6 5 -9 -16 -10 -16 -1 -33 -1 -37
0 -5 0 -8 -4 -8 -10 0 -5 -4 -7 -10 -4 -5 3 -10 1 -10 -5 0 -8 7 -9 18 -5 47
20 47 20 39 -150 -2 -27 1 -30 28 -32 l30 -2 -30 8 c-27 6 -28 7 -10 15 11 5
23 10 27 10 3 1 10 5 15 10 5 5 3 6 -4 2 -8 -4 -13 -2 -13 5 0 7 -7 4 -15 -7
-14 -18 -15 -18 -11 6 3 14 5 29 5 34 1 6 8 1 16 -10 8 -10 15 -15 15 -10 0 6
6 3 13 -5 6 -8 30 -21 52 -28 22 -8 42 -17 45 -22 3 -4 12 -4 20 1 11 7 11 10
2 10 -9 0 -10 5 -4 18 9 16 9 33 -3 95 -3 19 -1 26 6 21 7 -4 6 3 -2 17 -7 13
-12 26 -12 29 1 3 -1 7 -3 9 -2 2 -4 -10 -4 -28 0 -18 -4 -30 -9 -27 -13 8 -5
54 13 71 19 20 13 72 -11 91 -17 14 -17 15 5 9 13 -4 22 -2 22 4 0 6 -9 11
-21 11 -11 0 -17 5 -14 10 4 6 10 8 15 5 5 -3 12 0 16 6 4 7 3 9 -4 5 -6 -3
-13 -2 -17 4 -3 5 1 10 9 10 9 0 14 8 13 20 -1 11 -8 20 -18 20 -15 0 -17 13
-10 62 1 4 8 5 16 2 8 -4 15 -2 15 4 0 5 -8 12 -19 15 -13 3 -18 12 -16 30 2
14 -2 28 -8 30 -9 3 -12 -43 -11 -174 0 -125 -3 -176 -10 -172 -8 5 -8 3 0 -8
15 -20 16 -61 1 -52 -9 5 -9 3 0 -8 12 -15 10 -55 -2 -67 -3 -3 -13 2 -23 12
-13 14 -14 20 -4 23 10 4 10 8 1 19 -9 11 -9 18 1 29 9 10 9 15 1 15 -6 0 -11
7 -11 16 0 9 5 13 13 9 6 -4 4 0 -7 9 -10 8 -15 19 -11 25 3 6 0 9 -8 5 -8 -3
-20 3 -28 12 -9 12 -10 15 -1 10 6 -4 12 -3 12 3 0 5 7 16 15 25 10 10 17 39
19 84 2 38 7 75 11 82 5 8 4 11 -2 7 -12 -8 -12 62 1 81 4 7 4 11 -1 10 -4 -2
-8 0 -8 3 0 4 -8 15 -17 25 -16 19 -18 23 -18 44 0 7 -7 7 -21 -1 -15 -8 -19
-8 -15 0 4 6 2 11 -3 11 -7 0 -11 -58 -11 -175z m39 52 c8 -10 7 -14 -2 -14
-8 0 -14 6 -14 14 0 7 1 13 2 13 2 0 8 -6 14 -13z m-5 -122 c-4 -8 -8 -15 -10
-15 -2 0 -4 7 -4 15 0 8 4 15 10 15 5 0 7 -7 4 -15z m131 5 c3 -5 -1 -10 -10
-10 -9 0 -13 5 -10 10 3 6 8 10 10 10 2 0 7 -4 10 -10z m-5 -135 c0 -19 -4
-35 -8 -35 -4 0 -7 16 -7 35 0 19 3 35 8 35 4 0 7 -16 7 -35z m-155 -15 c-3
-5 -12 -10 -18 -10 -7 0 -6 4 3 10 19 12 23 12 15 0z m-388 -32 c-3 -7 -5 -2
-5 12 0 14 2 19 5 13 2 -7 2 -19 0 -25z m420 -25 c-4 -3 -1 -13 6 -21 8 -11 8
-14 0 -9 -7 5 -13 -1 -15 -15 -3 -16 -5 -12 -9 15 -4 28 -1 37 10 37 8 0 11
-3 8 -7z m-420 -45 c-3 -8 -6 -5 -6 6 -1 11 2 17 5 13 3 -3 4 -12 1 -19z m545
-49 c-5 -48 -11 -46 -16 5 -3 23 0 36 8 36 7 0 10 -14 8 -41z m-545 -11 c-3
-7 -5 -2 -5 12 0 14 2 19 5 13 2 -7 2 -19 0 -25z m-17 -27 c0 -11 -4 -23 -10
-26 -6 -4 -9 5 -8 19 3 30 18 35 18 7z"/>
<path d="M1035 740 c3 -5 8 -10 11 -10 2 0 4 5 4 10 0 6 -5 10 -11 10 -5 0 -7
-4 -4 -10z"/>
<path d="M1116 742 c12 -8 14 -53 2 -46 -4 3 -8 0 -8 -5 0 -6 5 -11 11 -11 7
0 10 -12 7 -28 -2 -16 1 -29 7 -29 13 0 14 109 0 119 -5 4 -14 8 -20 8 -6 0
-6 -3 1 -8z"/>
<path d="M691 579 c-7 -12 -9 -24 -4 -28 12 -8 14 -51 3 -51 -5 0 -7 9 -5 20
2 13 -2 20 -11 20 -8 0 -12 -4 -9 -10 3 -5 3 -16 -2 -22 -9 -16 -14 -42 -5
-34 3 4 11 -8 16 -26 9 -27 25 -40 81 -70 39 -21 76 -38 84 -38 7 0 -18 16
-58 36 -44 22 -71 42 -72 52 0 9 -1 52 -1 95 1 42 0 77 -1 77 -1 0 -8 -10 -16
-21z m6 -109 c-5 -29 -13 -33 -13 -5 0 14 4 25 8 25 4 0 7 -9 5 -20z"/>
<path d="M1127 560 c3 -11 9 -17 14 -15 10 7 1 35 -11 35 -5 0 -6 -9 -3 -20z"/>
<path d="M633 455 c0 -8 4 -12 9 -9 5 3 6 10 3 15 -9 13 -12 11 -12 -6z"/>
<path d="M1035 389 c-4 -6 -5 -12 -2 -15 2 -3 7 2 10 11 7 17 1 20 -8 4z"/>
<path d="M900 365 c-7 -9 -19 -14 -27 -11 -7 3 -13 1 -13 -4 0 -11 26 -12 52
-2 11 5 14 12 9 20 -6 10 -10 10 -21 -3z"/>
<path d="M724 316 c11 -9 24 -16 30 -16 12 0 7 5 -24 19 -24 11 -24 11 -6 -3z"/>
<path d="M770 294 c0 -2 15 -11 33 -20 27 -14 30 -15 19 -2 -11 14 -52 31 -52
22z"/>
<path d="M873 288 c-31 -15 -29 -30 2 -16 14 6 25 15 25 20 0 9 1 10 -27 -4z"/>
<path d="M630 280 c0 -5 5 -10 10 -10 6 0 10 5 10 10 0 6 -4 10 -10 10 -5 0
-10 -4 -10 -10z"/>
<path d="M1058 113 c6 -2 18 -2 25 0 6 3 1 5 -13 5 -14 0 -19 -2 -12 -5z"/>
</g>
</svg>
